<svg width="20" height="21" viewBox="0 0 20 21" fill="none" xmlns="http://www.w3.org/2000/svg">
<path d="M8 7.85L13 10.5L8 13.15V7.85ZM10 5.5C9.01109 5.5 8.04439 5.79324 7.22215 6.34265C6.3999 6.89206 5.75904 7.67295 5.3806 8.58658C5.00216 9.50021 4.90315 10.5055 5.09607 11.4755C5.289 12.4454 5.7652 13.3363 6.46447 14.0355C7.16373 14.7348 8.05464 15.211 9.02455 15.4039C9.99445 15.5969 10.9998 15.4978 11.9134 15.1194C12.827 14.741 13.6079 14.1001 14.1573 13.2779C14.7068 12.4556 15 11.4889 15 10.5C15 9.17392 14.4732 7.90215 13.5355 6.96447C12.5979 6.02678 11.3261 5.5 10 5.5ZM10 4.5C11.1867 4.5 12.3467 4.85189 13.3334 5.51118C14.3201 6.17047 15.0892 7.10754 15.5433 8.2039C15.9974 9.30026 16.1162 10.5067 15.8847 11.6705C15.6532 12.8344 15.0818 13.9035 14.2426 14.7426C13.4035 15.5818 12.3344 16.1532 11.1705 16.3847C10.0067 16.6162 8.80026 16.4974 7.7039 16.0433C6.60754 15.5892 5.67047 14.8201 5.01118 13.8334C4.35189 12.8467 4 11.6867 4 10.5C4 8.9087 4.63214 7.38258 5.75736 6.25736C6.88258 5.13214 8.4087 4.5 10 4.5ZM10 1.5C8.21997 1.5 6.47991 2.02784 4.99987 3.01677C3.51983 4.00571 2.36627 5.41131 1.68508 7.05585C1.0039 8.70038 0.825665 10.51 1.17293 12.2558C1.5202 14.0016 2.37737 15.6053 3.63604 16.864C4.89471 18.1226 6.49836 18.9798 8.24419 19.3271C9.99002 19.6743 11.7996 19.4961 13.4442 18.8149C15.0887 18.1337 16.4943 16.9802 17.4832 15.5001C18.4722 14.0201 19 12.28 19 10.5C19 8.11305 18.0518 5.82387 16.364 4.13604C14.6761 2.44821 12.3869 1.5 10 1.5ZM10 0.5C11.9778 0.5 13.9112 1.08649 15.5557 2.1853C17.2002 3.28412 18.4819 4.8459 19.2388 6.67317C19.9957 8.50043 20.1937 10.5111 19.8079 12.4509C19.422 14.3907 18.4696 16.1725 17.0711 17.5711C15.6725 18.9696 13.8907 19.922 11.9509 20.3079C10.0111 20.6937 8.00043 20.4957 6.17317 19.7388C4.3459 18.9819 2.78412 17.7002 1.6853 16.0557C0.58649 14.4112 0 12.4778 0 10.5C0 7.84784 1.05357 5.3043 2.92893 3.42893C4.8043 1.55357 7.34784 0.5 10 0.5Z" fill="white"/>
</svg>
