<svg width="19" height="18" viewBox="0 0 19 18" fill="none" xmlns="http://www.w3.org/2000/svg">
<path d="M14.0701 0.5H13.0701H3.64014C2.57014 0.5 1.66014 1.17 1.45014 2.11L0.110136 8.11C-0.159864 9.35 0.890136 10.5 2.30014 10.5H6.53014L5.01014 15.44C4.69014 16.47 5.53014 17.5 6.69014 17.5C7.27014 17.5 7.83014 17.26 8.21014 16.85L14.0701 10.5H18.0701V0.5H14.0701ZM7.47014 16.17C7.28014 16.38 6.99014 16.5 6.69014 16.5C6.43014 16.5 6.19014 16.39 6.06014 16.2C5.99014 16.1 5.91014 15.94 5.97014 15.73L7.49014 10.79L7.89014 9.5H6.53014H2.30014C1.89014 9.5 1.50014 9.33 1.27014 9.04C1.15014 8.89 1.02014 8.64 1.09014 8.32L2.43014 2.32C2.53014 1.85 3.04014 1.5 3.64014 1.5H13.0701V10.11L7.47014 16.17ZM17.0701 9.5H14.0701V1.5H17.0701V9.5Z" fill="#F1F1F1"/>
</svg>
