<svg width="21" height="21" viewBox="0 0 21 21" fill="none" xmlns="http://www.w3.org/2000/svg">
<path d="M13.97 15.45L9.00002 12.37V5.5H11V11.26L15.03 13.75L13.97 15.45ZM21 10.5C21 16.01 16.51 20.5 11 20.5C5.49002 20.5 1.00002 16.01 1.00002 10.5H2.00002C2.00002 15.46 6.04002 19.5 11 19.5C15.96 19.5 20 15.46 20 10.5C20 5.54 15.96 1.5 11 1.5C7.81002 1.5 4.92002 3.14 3.28002 5.88C3.17002 6.06 3.06002 6.25 2.97002 6.44L2.94002 6.5H7.00002V7.5H0.960022V1.5H1.96002V6.24C2.00002 6.15 2.03002 6.07 2.07002 5.99C2.18002 5.77 2.30002 5.57 2.42002 5.36C4.22002 2.36 7.51002 0.5 11 0.5C16.51 0.5 21 4.99 21 10.5Z" fill="white"/>
</svg>
