<svg width="18" height="21" viewBox="0 0 18 21" fill="none" xmlns="http://www.w3.org/2000/svg">
<path d="M7.00001 13.15V7.84999L12 10.5L7.00001 13.15ZM14.77 8.81999L13.57 8.31999L15 7.55999C16.84 6.59999 17.53 4.32999 16.56 2.49999C15.59 0.669991 13.32 -0.030009 11.49 0.939991L3.00001 5.43999C1.71001 6.11999 0.930014 7.47999 1.00001 8.92999C1.07001 10.35 1.93001 11.6 3.22001 12.18C3.25001 12.19 4.42001 12.68 4.42001 12.68L3.00001 13.43C1.17001 14.4 0.470014 16.67 1.44001 18.5C2.41001 20.33 4.68001 21.03 6.51001 20.06L15.01 15.56C16.3 14.88 17.07 13.52 17 12.07C16.93 10.65 16.06 9.38999 14.77 8.81999ZM14.54 14.68L6.04001 19.18C4.70001 19.89 3.03001 19.38 2.32001 18.04C1.61001 16.7 2.12001 15.03 3.46001 14.32L5.50001 13.24V12.03L4.81001 11.75L3.70001 11.29C2.71001 10.88 2.05001 9.93999 2.00001 8.87999C1.95001 7.81999 2.52001 6.81999 3.46001 6.31999L11.96 1.81999C13.3 1.10999 14.97 1.61999 15.68 2.95999C16.39 4.29999 15.88 5.96999 14.54 6.67999L12.5 7.75999V8.96999L14.3 9.70999C15.29 10.12 15.95 11.06 16 12.12C16.05 13.18 15.48 14.18 14.54 14.68Z" fill="white"/>
</svg>
