<svg width="4" height="16" viewBox="0 0 4 16" fill="none" xmlns="http://www.w3.org/2000/svg">
<path d="M2 12.8901C2.83 12.8901 3.5 13.5601 3.5 14.3901C3.5 15.2201 2.83 15.8901 2 15.8901C1.17 15.8901 0.5 15.2201 0.5 14.3901C0.5 13.5601 1.17 12.8901 2 12.8901ZM0.5 8.39014C0.5 9.22014 1.17 9.89014 2 9.89014C2.83 9.89014 3.5 9.22014 3.5 8.39014C3.5 7.56014 2.83 6.89014 2 6.89014C1.17 6.89014 0.5 7.56014 0.5 8.39014ZM0.5 2.39014C0.5 3.22014 1.17 3.89014 2 3.89014C2.83 3.89014 3.5 3.22014 3.5 2.39014C3.5 1.56014 2.83 0.890137 2 0.890137C1.17 0.890137 0.5 1.56014 0.5 2.39014Z" fill="white"/>
</svg>
